<svg width="30" height="30" viewBox="0 0 30 30" fill="none" xmlns="http://www.w3.org/2000/svg">
<g clip-path="url(#clip0_1_1456)">
<path d="M20.7054 19.0494C20.7054 17.3726 22.0685 16.0094 23.7454 16.0094C25.4223 16.0094 26.7854 17.3726 26.7854 19.0494C26.7854 20.7263 25.4223 22.0894 23.7454 22.0894C22.0685 22.0894 20.7054 20.7263 20.7054 19.0494ZM29.8254 26.9534L29.8254 29.3855L17.6654 29.3855L17.6654 26.9534C17.6654 24.9422 19.3021 23.3054 21.3134 23.3054L26.1774 23.3054C28.1887 23.3054 29.8254 24.9422 29.8254 26.9534ZM15.2334 29.3855L0.641358 29.3855L0.641357 3.84942C0.641357 1.83815 2.2781 0.201416 4.28936 0.201416L16.4494 0.201416C18.4606 0.201416 20.0974 1.83815 20.0974 3.84942L20.0974 15.0002C18.986 16.0021 18.2734 17.4382 18.2734 19.0494C18.2734 19.9006 18.485 20.6959 18.8327 21.4146C16.7157 22.3667 15.2334 24.4862 15.2334 26.9534L15.2334 29.3855ZM11.5854 8.71343L15.2334 8.71343L15.2334 6.28142L11.5854 6.28142L11.5854 8.71343ZM11.5854 13.5774L15.2334 13.5774L15.2334 11.1454L11.5854 11.1454L11.5854 13.5774ZM11.5854 18.4414L15.2334 18.4414L15.2334 16.0094L11.5854 16.0094L11.5854 18.4414ZM11.5854 23.3054L15.2334 23.3054L15.2334 20.8734L11.5854 20.8734L11.5854 23.3054ZM9.15337 20.8734L5.50536 20.8734L5.50536 23.3054L9.15337 23.3054L9.15337 20.8734ZM9.15337 16.0094L5.50536 16.0094L5.50536 18.4414L9.15337 18.4414L9.15337 16.0094ZM9.15337 11.1454L5.50536 11.1454L5.50536 13.5774L9.15337 13.5774L9.15337 11.1454ZM9.15337 6.28142L5.50536 6.28142L5.50536 8.71343L9.15337 8.71343L9.15337 6.28142Z" fill="white"/>
</g>
<defs>
<clipPath id="clip0_1_1456">
<rect width="29.184" height="29.184" fill="white" transform="translate(0.641357 0.201416)"/>
</clipPath>
</defs>
</svg>
