<svg width="183" height="55" viewBox="0 0 183 55" fill="none" xmlns="http://www.w3.org/2000/svg">
<g clip-path="url(#clip0_1_648)">
<path d="M46.2323 0H8.64758C3.87165 0 0 3.87165 0 8.64758V46.2323C0 51.0082 3.87165 54.8799 8.64758 54.8799H46.2323C51.0082 54.8799 54.8799 51.0082 54.8799 46.2323V8.64758C54.8799 3.87165 51.0082 0 46.2323 0Z" fill="#5E13F6"/>
<path d="M40.3509 30.6884V45.0529H14.6833V30.6884L27.4777 21.7808L40.3509 30.6884Z" fill="white"/>
<path d="M41.4732 19.533C40.9451 19.8161 40.4783 20.2009 40.0997 20.6653C39.7211 21.1297 39.4382 21.6645 39.2672 22.2388L27.4391 14.0525L14.5105 23.0037L12.5327 20.1352L27.4391 9.8252L41.4732 19.533Z" fill="white"/>
<path d="M11.2662 28.0649C10.3704 28.0649 9.49467 27.7993 8.74983 27.3016C8.00499 26.8039 7.42446 26.0965 7.08165 25.2689C6.73884 24.4413 6.64914 23.5306 6.82391 22.652C6.99867 21.7734 7.43004 20.9664 8.06348 20.3329C8.69691 19.6995 9.50395 19.2681 10.3825 19.0934C11.2611 18.9186 12.1718 19.0083 12.9995 19.3511C13.8271 19.6939 14.5344 20.2745 15.0321 21.0193C15.5298 21.7641 15.7955 22.6398 15.7955 23.5356C15.7924 24.7359 15.3142 25.8862 14.4654 26.7349C13.6167 27.5836 12.4665 28.0618 11.2662 28.0649ZM11.2662 22.0913C10.9814 22.091 10.7029 22.1751 10.4659 22.3332C10.229 22.4912 10.0442 22.716 9.93506 22.979C9.82592 23.2421 9.79727 23.5316 9.85276 23.811C9.90824 24.0903 10.0454 24.347 10.2468 24.5483C10.4481 24.7497 10.7048 24.8869 10.9841 24.9423C11.2635 24.9978 11.553 24.9692 11.8161 24.86C12.0791 24.7509 12.3039 24.5661 12.4619 24.3292C12.62 24.0922 12.7041 23.8137 12.7038 23.5289C12.7034 23.1478 12.5517 22.7824 12.2822 22.5129C12.0127 22.2433 11.6473 22.0917 11.2662 22.0913Z" fill="white"/>
<path d="M42.3489 20.1387L40.3711 23.0073L39.2673 22.239C39.4378 21.6641 39.7205 21.1287 40.0991 20.6637C40.4778 20.1987 40.9448 19.8133 41.4732 19.5298L42.3489 20.1387Z" fill="white"/>
<path d="M43.6137 18.9961C42.6363 18.9953 41.6849 19.3106 40.9016 19.8951C40.1182 20.4795 39.5449 21.3016 39.2672 22.2387C39.1422 22.6562 39.0789 23.0896 39.0794 23.5254C39.0794 24.4212 39.345 25.2969 39.8427 26.0417C40.3404 26.7866 41.0477 27.3671 41.8754 27.7099C42.703 28.0527 43.6137 28.1424 44.4923 27.9676C45.3709 27.7929 46.1779 27.3615 46.8113 26.7281C47.4448 26.0946 47.8761 25.2876 48.0509 24.409C48.2257 23.5304 48.136 22.6197 47.7932 21.7921C47.4504 20.9645 46.8698 20.2571 46.125 19.7594C45.3801 19.2617 44.5045 18.9961 43.6087 18.9961H43.6137ZM43.6137 24.9681C43.3289 24.9684 43.0505 24.8842 42.8136 24.7263C42.5767 24.5683 42.3919 24.3437 42.2827 24.0807C42.1735 23.8177 42.1448 23.5283 42.2001 23.249C42.2555 22.9697 42.3924 22.7131 42.5937 22.5116C42.7949 22.3101 43.0513 22.1729 43.3306 22.1172C43.6098 22.0615 43.8993 22.0899 44.1624 22.1988C44.4255 22.3077 44.6504 22.4922 44.8086 22.7289C44.9669 22.9657 45.0513 23.244 45.0513 23.5287C45.0509 23.91 44.8993 24.2756 44.6299 24.5454C44.3604 24.8152 43.995 24.9672 43.6137 24.9681Z" fill="white"/>
<path d="M36.8818 41.9177C36.8145 42.0069 36.7301 42.0817 36.6334 42.1377C36.5368 42.1938 36.43 42.23 36.3192 42.2442C36.2084 42.2584 36.0959 42.2504 35.9883 42.2205C35.8807 42.1907 35.7801 42.1396 35.6924 42.0704L26.0501 34.5887C25.4321 35.0497 24.6678 35.2711 23.899 35.2118C23.1302 35.1525 22.409 34.8164 21.8691 34.266C21.3291 33.7156 21.0069 32.9881 20.9623 32.2183C20.9177 31.4485 21.1537 30.6887 21.6265 30.0796C22.0993 29.4705 22.7769 29.0534 23.5337 28.9057C24.2905 28.758 25.0752 28.8897 25.7423 29.2763C26.4095 29.6629 26.9139 30.2782 27.162 31.0083C27.4101 31.7383 27.3852 32.5336 27.0918 33.2467L31.7889 36.8919L33.2986 34.951C33.3718 34.8554 33.4632 34.7752 33.5674 34.715C33.6717 34.6548 33.7869 34.6158 33.9063 34.6002C34.0257 34.5846 34.147 34.5927 34.2632 34.6241C34.3794 34.6556 34.4883 34.7097 34.5836 34.7833L35.3821 35.4039C35.4775 35.4773 35.5576 35.5687 35.6177 35.673C35.6777 35.7772 35.7167 35.8923 35.7323 36.0117C35.7479 36.131 35.7398 36.2523 35.7085 36.3685C35.6772 36.4847 35.6233 36.5936 35.5498 36.6889L34.0401 38.6281L34.4964 38.9821L36.0061 37.0429C36.0792 36.9473 36.1704 36.8672 36.2745 36.807C36.3786 36.7468 36.4936 36.7078 36.6129 36.6922C36.7322 36.6766 36.8533 36.6847 36.9694 36.7161C37.0855 36.7475 37.1943 36.8016 37.2894 36.8751L38.0896 37.4941C38.185 37.5674 38.2651 37.6589 38.3252 37.7632C38.3853 37.8674 38.4242 37.9825 38.4398 38.1019C38.4554 38.2212 38.4473 38.3424 38.416 38.4586C38.3847 38.5748 38.3308 38.6837 38.2574 38.7791L36.7476 40.72C36.8354 40.7896 36.9086 40.8758 36.963 40.9738C37.0173 41.0718 37.0517 41.1796 37.0642 41.2909C37.0767 41.4023 37.067 41.515 37.0357 41.6226C37.0044 41.7301 36.9521 41.8305 36.8818 41.9177Z" fill="#5E13F6"/>
<path d="M61.9844 34.5534V21.3245H64.3966V34.5534H61.9844ZM67.2501 24.1528C67.0455 24.1535 66.8427 24.1137 66.6536 24.0357C66.4644 23.9577 66.2925 23.8431 66.1478 23.6984C66.0031 23.5537 65.8885 23.3818 65.8105 23.1926C65.7325 23.0034 65.6927 22.8007 65.6934 22.5961C65.6889 22.3929 65.727 22.1911 65.8053 22.0036C65.8836 21.8161 66.0003 21.647 66.148 21.5074C66.2928 21.3638 66.465 21.2508 66.6543 21.175C66.8436 21.0992 67.0462 21.0622 67.2501 21.0662C67.45 21.0642 67.6482 21.1022 67.8332 21.1779C68.0181 21.2537 68.1861 21.3657 68.3271 21.5074C68.4741 21.6474 68.5904 21.8165 68.6684 22.004C68.7464 22.1914 68.7844 22.3931 68.78 22.5961C68.7838 22.801 68.7456 23.0045 68.6677 23.1941C68.5898 23.3836 68.4739 23.5552 68.3271 23.6982C68.1881 23.8436 68.0209 23.9589 67.8357 24.0371C67.6504 24.1153 67.4511 24.1547 67.2501 24.1528Z" fill="white"/>
<path d="M76.302 34.5534C74.9706 34.5775 73.6511 34.2981 72.4437 33.7365C71.3653 33.2314 70.4525 32.4303 69.8117 31.4265C69.1618 30.3824 68.829 29.172 68.8538 27.9423C68.8339 26.7149 69.1101 25.5008 69.659 24.4028C70.1638 23.39 70.9344 22.5336 71.8885 21.9251C72.8838 21.3074 74.0371 20.9921 75.2083 21.0175C76.5738 21.0175 77.7105 21.3117 78.6186 21.8999C79.5154 22.4738 80.2236 23.2987 80.6551 24.2719C81.115 25.3221 81.3438 26.4588 81.3261 27.6051C81.3261 27.7964 81.3262 27.9943 81.3127 28.2023C81.3069 28.385 81.2856 28.5668 81.249 28.7458H71.4003C71.4611 29.4968 71.7404 30.2135 72.2038 30.8075C72.6589 31.3735 73.2531 31.8117 73.9283 32.0791C74.667 32.3715 75.4556 32.5168 76.25 32.5068H79.699V34.5568L76.302 34.5534ZM71.3701 27.0566H78.9189C78.9162 26.7041 78.8814 26.3526 78.8149 26.0065C78.744 25.6288 78.6221 25.2626 78.4526 24.9178C78.2783 24.5619 78.0459 24.2376 77.7648 23.9582C77.4601 23.6598 77.0984 23.4259 76.7012 23.2704C76.2257 23.088 75.7192 22.9996 75.2099 23.0104C74.6578 22.9987 74.1109 23.1189 73.6146 23.361C73.1645 23.5905 72.7651 23.9083 72.4404 24.2954C72.113 24.6826 71.8583 25.1259 71.6888 25.6039C71.5166 26.0712 71.4094 26.56 71.3701 27.0566Z" fill="white"/>
<path d="M82.8105 34.5534V26.9023C82.7856 25.8202 83.0595 24.7522 83.6022 23.8157C84.1262 22.9366 84.8864 22.2222 85.7964 21.754C86.7917 21.2672 87.885 21.0142 88.9929 21.0142C90.1009 21.0142 91.1942 21.2672 92.1894 21.754C93.0941 22.2248 93.8494 22.9388 94.3702 23.8157C94.9122 24.7525 95.1861 25.8203 95.162 26.9023V34.5534H92.7749V26.9358C92.7935 26.2124 92.6093 25.4983 92.2431 24.8742C91.9067 24.3079 91.4225 23.844 90.8424 23.5322C90.2725 23.225 89.6353 23.0642 88.9879 23.0642C88.3405 23.0642 87.7033 23.225 87.1334 23.5322C86.5541 23.8445 86.0706 24.3084 85.7344 24.8742C85.3655 25.4974 85.1795 26.2118 85.1976 26.9358V34.5618L82.8105 34.5534Z" fill="white"/>
<path d="M95.8615 23.3746V21.3247H105.069V23.3746H95.8615ZM101.901 34.5536C100.724 34.5536 99.8037 34.2181 99.1394 33.5471C98.4751 32.876 98.1396 31.9596 98.1329 30.7976V18.0049H100.518V30.6366C100.492 31.1361 100.665 31.6258 100.998 31.9987C101.318 32.3342 101.765 32.502 102.34 32.502H105.012V34.5519L101.901 34.5536Z" fill="white"/>
<path d="M112.689 34.5534C111.357 34.5775 110.038 34.2981 108.83 33.7364C107.752 33.2313 106.839 32.4303 106.198 31.4265C105.553 30.3798 105.224 29.1685 105.252 27.9389C105.233 26.7117 105.508 25.4978 106.056 24.3994C106.562 23.3869 107.333 22.5305 108.287 21.9217C109.282 21.3036 110.435 20.9883 111.607 21.0142C112.972 21.0142 114.109 21.3083 115.017 21.8965C115.913 22.4709 116.621 23.2956 117.054 24.2685C117.513 25.3187 117.742 26.4554 117.725 27.6018C117.725 27.793 117.725 27.991 117.711 28.199C117.706 28.3817 117.684 28.5636 117.646 28.7425H107.79C107.852 29.4932 108.131 30.2096 108.594 30.8041C109.049 31.3704 109.644 31.8086 110.32 32.0757C111.058 32.3681 111.846 32.5134 112.64 32.5035H116.091V34.5534H112.689ZM107.762 27.0566H115.311C115.308 26.7041 115.273 26.3526 115.207 26.0065C115.135 25.6287 115.013 25.2625 114.843 24.9177C114.669 24.5619 114.437 24.2376 114.156 23.9582C113.852 23.6601 113.49 23.4262 113.093 23.2704C112.617 23.0881 112.111 22.9998 111.602 23.0104C111.05 22.9987 110.503 23.1189 110.006 23.361C109.556 23.5907 109.157 23.9084 108.832 24.2954C108.505 24.683 108.251 25.1262 108.081 25.6038C107.908 26.0712 107.801 26.56 107.762 27.0566Z" fill="white"/>
<path d="M124.696 34.8637C123.418 34.8637 122.311 34.5567 121.377 33.9428C120.44 33.3251 119.695 32.4583 119.224 31.4399C118.714 30.3442 118.457 29.1476 118.473 27.9389C118.456 26.7133 118.744 25.5028 119.312 24.4162C119.858 23.3819 120.684 22.5221 121.695 21.9351C122.732 21.3211 123.977 21.0142 125.429 21.0142C126.83 21.0142 128.031 21.3167 129.034 21.9217C130.023 22.5106 130.827 23.3641 131.356 24.386C131.91 25.4598 132.19 26.6536 132.173 27.8618V34.5534H129.747V31.8559H129.695C129.417 32.3843 129.064 32.8692 128.645 33.2952C128.174 33.7739 127.615 34.1567 126.998 34.4225C126.27 34.7299 125.486 34.8803 124.696 34.8637ZM125.32 32.8155C126.131 32.8307 126.928 32.6098 127.615 32.1797C128.287 31.7478 128.826 31.1373 129.17 30.4166C129.551 29.6283 129.742 28.7621 129.729 27.8869C129.743 27.0356 129.561 26.1925 129.197 25.4227C128.858 24.6994 128.316 24.0908 127.636 23.6716C126.956 23.2523 126.169 23.0406 125.371 23.0624C124.525 23.0384 123.69 23.2643 122.972 23.7116C122.309 24.1407 121.779 24.7467 121.442 25.4613C121.094 26.2404 120.912 27.084 120.91 27.9375C120.908 28.791 121.084 29.6356 121.429 30.4166C121.757 31.1305 122.28 31.7371 122.938 32.1663C123.65 32.614 124.48 32.8399 125.32 32.8155Z" fill="white"/>
<path d="M134.216 34.5538V32.5039H140.544C140.921 32.5134 141.294 32.4194 141.621 32.2321C141.912 32.063 142.149 31.8161 142.307 31.5192C142.462 31.232 142.542 30.9109 142.542 30.5848C142.544 30.2826 142.472 29.9845 142.334 29.7159C142.19 29.4426 141.969 29.2175 141.698 29.0683C141.384 28.8965 141.031 28.8114 140.673 28.8217H138.003C137.241 28.8388 136.485 28.693 135.785 28.394C135.179 28.1294 134.665 27.6917 134.307 27.1358C133.966 26.5452 133.785 25.8765 133.779 25.1947C133.774 24.513 133.946 23.8415 134.277 23.2457C134.619 22.6508 135.115 22.1587 135.713 21.8209C136.31 21.483 136.988 21.3118 137.674 21.3249H143.768V23.3749H137.907C137.672 23.3628 137.438 23.4005 137.218 23.4855C136.999 23.5705 136.801 23.7009 136.635 23.868C136.485 24.0222 136.366 24.2046 136.286 24.4046C136.206 24.6046 136.166 24.8185 136.169 25.0339C136.168 25.2449 136.209 25.4539 136.292 25.6481C136.374 25.8423 136.496 26.0175 136.649 26.1629C136.969 26.4833 137.422 26.6426 138.011 26.6426H140.552C141.376 26.6171 142.194 26.7723 142.951 27.0973C143.567 27.3702 144.084 27.8273 144.429 28.4057C144.783 29.0482 144.957 29.7744 144.932 30.5076C144.936 31.2025 144.757 31.8862 144.414 32.4905C144.069 33.1023 143.574 33.6157 142.975 33.9818C142.33 34.3712 141.588 34.5695 140.834 34.5538H134.216Z" fill="white"/>
<path d="M148.014 39.8176V37.7694H154.497C155.136 37.7694 155.633 37.5793 155.989 37.199C156.356 36.7845 156.547 36.2426 156.52 35.6893V32.7838H156.494C155.963 33.4074 155.292 33.8966 154.536 34.2114C153.687 34.5611 152.77 34.718 151.853 34.6707C150.936 34.6234 150.04 34.3731 149.232 33.9379C148.377 33.4575 147.679 32.7419 147.219 31.8763C146.726 30.9234 146.481 29.862 146.506 28.7896V21.3247H148.918V28.7695C148.902 29.4866 149.081 30.1945 149.436 30.8178C149.764 31.3859 150.245 31.8508 150.824 32.1598C151.393 32.4685 152.031 32.6289 152.679 32.6261C153.335 32.6311 153.982 32.4707 154.559 32.1598C155.135 31.8518 155.618 31.3954 155.958 30.8379C156.324 30.2276 156.508 29.5259 156.49 28.8148V21.3247H158.903V35.8503C158.903 37.0592 158.548 38.0227 157.839 38.7407C157.13 39.4586 156.162 39.8176 154.935 39.8176H148.014Z" fill="white"/>
<path d="M161.94 34.8203C161.603 34.8193 161.274 34.7185 160.994 34.5306C160.715 34.3428 160.497 34.0763 160.368 33.7648C160.24 33.4532 160.206 33.1106 160.272 32.7802C160.338 32.4497 160.501 32.1462 160.739 31.9079C160.977 31.6696 161.281 31.5072 161.611 31.4412C161.942 31.3752 162.284 31.4086 162.596 31.5371C162.907 31.6656 163.174 31.8835 163.362 32.1633C163.55 32.443 163.65 32.7722 163.651 33.1092C163.655 33.4066 163.58 33.6996 163.435 33.959C163.289 34.2184 163.078 34.435 162.823 34.5871C162.556 34.7449 162.25 34.8256 161.94 34.8203Z" fill="white"/>
<path d="M170.474 34.8638C169.195 34.8638 168.088 34.5568 167.154 33.9428C166.217 33.3257 165.471 32.4588 165 31.44C164.49 30.3443 164.233 29.1477 164.249 27.939C164.23 26.7141 164.515 25.5036 165.079 24.4162C165.624 23.3787 166.451 22.5159 167.465 21.9268C168.503 21.3128 169.748 21.0059 171.199 21.0059C172.6 21.0059 173.802 21.3084 174.805 21.9134C175.793 22.5029 176.596 23.3563 177.125 24.3777C177.679 25.4515 177.96 26.6453 177.942 27.8535V34.5451H175.53V31.8476H175.48C175.2 32.3757 174.846 32.8605 174.428 33.2869C173.957 33.7657 173.399 34.1485 172.782 34.4142C172.053 34.7251 171.267 34.8784 170.474 34.8638ZM171.096 32.8156C171.907 32.8308 172.704 32.6099 173.391 32.1798C174.064 31.748 174.603 31.1375 174.948 30.4167C175.327 29.628 175.518 28.762 175.505 27.887C175.518 27.0368 175.336 26.1949 174.973 25.4261C174.635 24.7027 174.093 24.094 173.413 23.6746C172.734 23.2553 171.947 23.0437 171.148 23.0658C170.302 23.0417 169.467 23.2675 168.748 23.715C168.085 24.1446 167.555 24.7505 167.218 25.4647C166.869 26.2439 166.688 27.0875 166.686 27.9411C166.684 28.7947 166.861 29.6392 167.206 30.4201C167.534 31.1341 168.058 31.7407 168.716 32.1697C169.428 32.6159 170.256 32.8407 171.096 32.8156Z" fill="white"/>
<path d="M181.393 19.219C181.012 19.2263 180.641 19.101 180.343 18.8646C180.045 18.6282 179.838 18.2954 179.759 17.9233C179.679 17.5512 179.731 17.163 179.907 16.8253C180.082 16.4875 180.369 16.2213 180.719 16.0723C181.07 15.9233 181.461 15.9008 181.826 16.0086C182.191 16.1164 182.507 16.3478 182.72 16.6632C182.933 16.9786 183.029 17.3582 182.993 17.737C182.956 18.1158 182.789 18.4701 182.52 18.7392C182.375 18.8919 182.2 19.0132 182.006 19.0957C181.812 19.1782 181.604 19.2202 181.393 19.219ZM180.173 34.5481V21.3242H182.589V34.5531L180.173 34.5481Z" fill="white"/>
</g>
<defs>
<clipPath id="clip0_1_648">
<rect width="183" height="54.8799" fill="white"/>
</clipPath>
</defs>
</svg>
