<svg width="30" height="30" viewBox="0 0 30 30" fill="none" xmlns="http://www.w3.org/2000/svg">
<g clip-path="url(#clip0_1_1463)">
<path d="M24.9795 0.201416L16.4674 0.201416C15.1238 0.201416 14.0354 1.28974 14.0354 2.63342L14.0354 12.3614L27.4115 12.3614L27.4115 2.63342C27.4115 1.28974 26.3231 0.201416 24.9795 0.201416ZM20.7235 2.63342C21.7303 2.63342 22.5475 3.45057 22.5475 4.45742C22.5475 5.46427 21.7303 6.28142 20.7235 6.28142C19.7166 6.28142 18.8995 5.46427 18.8995 4.45742C18.8995 3.45057 19.7166 2.63342 20.7235 2.63342ZM23.7635 9.92943L17.6835 9.92943L17.6835 9.32143C17.6835 8.31458 18.5006 7.49743 19.5075 7.49743L21.9395 7.49743C22.9463 7.49743 23.7635 8.31458 23.7635 9.32143L23.7635 9.92943ZM4.30743 25.5854L3.09143 29.3855L0.65943 29.3855L0.65943 8.71343C0.655782 6.65595 2.31198 5.06542 4.43025 5.06542C4.43025 5.06542 4.30743 5.86555 4.30743 6.28142L4.30743 25.5854ZM29.8435 14.7934L25.4659 29.3855L5.62801 29.3855L10.6537 14.7934L29.8435 14.7934ZM6.73944 18.6932L6.73944 6.28142C6.73944 4.27016 8.37617 2.63342 10.3874 2.63342L11.6034 2.63342L11.6034 12.3614L8.91973 12.3614L6.73944 18.6932Z" fill="white"/>
</g>
<defs>
<clipPath id="clip0_1_1463">
<rect width="29.184" height="29.184" fill="white" transform="translate(0.659424 0.201416)"/>
</clipPath>
</defs>
</svg>
