<svg width="73" height="73" viewBox="0 0 73 73" fill="none" xmlns="http://www.w3.org/2000/svg">
<rect width="73" height="73" rx="36.5" fill="#5E13F6"/>
<g clip-path="url(#clip0_67_921)">
<path d="M54.775 49.2984L53.1367 48.355C53.3517 47.6584 53.5 46.9334 53.5 46.1667C53.5 45.4 53.35 44.675 53.1367 43.9784L54.775 43.035C55.5733 42.5767 55.8483 41.5567 55.3867 40.7584C54.93 39.9634 53.9083 39.685 53.1117 40.1467L51.4833 41.085C50.475 39.9984 49.1617 39.2084 47.6683 38.8684V37C47.6683 36.08 46.9233 35.3334 46.0017 35.3334C45.08 35.3334 44.335 36.08 44.335 37V38.8684C42.8417 39.21 41.5267 39.9984 40.52 41.085L38.8917 40.1467C38.0933 39.685 37.0767 39.9634 36.6167 40.7584C36.1567 41.5567 36.43 42.575 37.2283 43.035L38.8667 43.9784C38.6517 44.675 38.5033 45.4 38.5033 46.1667C38.5033 46.9334 38.6533 47.6584 38.8667 48.355L37.2283 49.2984C36.43 49.7567 36.1567 50.7767 36.6167 51.575C36.925 52.11 37.485 52.4084 38.0617 52.4084C38.3433 52.4084 38.63 52.3367 38.8917 52.185L40.52 51.2467C41.5283 52.3334 42.8417 53.1234 44.335 53.4634V55.3317C44.335 56.2517 45.08 56.9984 46.0017 56.9984C46.9233 56.9984 47.6683 56.2517 47.6683 55.3317V53.4634C49.1617 53.1217 50.4767 52.3334 51.4833 51.2467L53.1117 52.185C53.3733 52.3367 53.66 52.4084 53.9417 52.4084C54.5183 52.4084 55.08 52.1084 55.3867 51.575C55.8467 50.7767 55.5717 49.7584 54.775 49.2984ZM46 48.6667C44.6217 48.6667 43.5 47.545 43.5 46.1667C43.5 44.7884 44.6217 43.6667 46 43.6667C47.3783 43.6667 48.5 44.7884 48.5 46.1667C48.5 47.545 47.3783 48.6667 46 48.6667ZM41.9783 24.715L29.285 32.005C29.285 32.005 29.2717 32.0017 29.265 32.0017C29.2383 32.0017 29.2167 32.015 29.1917 32.0167L16.615 24.86C17.2417 23.4117 18.32 22.1717 19.7317 21.365L25.6583 17.9784C27.925 16.6817 30.7417 16.6817 33.01 17.9784L38.935 21.365C40.2983 22.145 41.3433 23.3317 41.98 24.715H41.9783ZM16 28.345L27.6 34.945V47.895C26.885 47.7234 26.195 47.4567 25.5583 47.0784L19.6317 43.5684C17.3917 42.2417 16 39.8 16 37.195V28.345ZM32.6667 46.1667C32.6667 46.5367 32.6933 46.9017 32.7217 47.2634C32.1517 47.5534 31.555 47.7834 30.9333 47.92V34.9017L42.6667 28.1634V33.27C36.9183 34.7517 32.6667 39.955 32.6667 46.1667Z" fill="white"/>
</g>
<defs>
<clipPath id="clip0_67_921">
<rect width="40" height="40" fill="white" transform="translate(16 17)"/>
</clipPath>
</defs>
</svg>
