<svg width="74" height="73" viewBox="0 0 74 73" fill="none" xmlns="http://www.w3.org/2000/svg">
<rect x="0.5" width="73" height="73" rx="36.5" fill="#5E13F6"/>
<g clip-path="url(#clip0_67_888)">
<path d="M56.4117 47.6349L50.595 41.8182C50.72 41.0032 50.6934 40.1899 50.5117 39.3882C52.2067 38.0382 53.7584 36.0449 53.6467 33.6799C53.6517 32.5699 53.3767 31.4816 52.85 30.5332C52.3417 29.4049 51.2667 28.7432 50.5134 27.9432C50.76 26.8566 50.7234 25.7449 50.4067 24.6416C49.8 22.5282 48.11 20.8416 45.9967 20.2382C44.89 19.9216 43.7784 19.8866 42.6967 20.1332C41.8884 19.3899 41.2317 18.3066 40.0967 17.7982C38.175 16.7349 35.7867 16.7349 33.8634 17.7982C32.7317 18.3066 32.0767 19.3832 31.265 20.1316C30.1967 19.8899 29.055 19.9266 27.9667 20.2366C25.8517 20.8399 24.1617 22.5282 23.555 24.6399C23.2367 25.7466 23.2017 26.8582 23.4484 27.9432C21.7567 29.2949 20.2017 31.2866 20.3134 33.6532C20.2034 36.0482 21.7417 38.0232 23.4484 39.3866C23.2634 40.1999 23.2367 41.0282 23.3684 41.8566L17.5884 47.6349C17.2667 47.9582 17.0617 48.3866 17.0117 48.8432C16.89 49.9549 17.6934 50.9582 18.805 51.0799L22.5067 51.4899L22.915 55.1766C22.9934 55.9582 23.5217 56.6266 24.2584 56.8816C24.9984 57.1466 25.8267 56.9549 26.3634 56.4049L33.495 49.2732C34.4817 50.0216 35.7667 50.3199 36.975 50.3349C38.1934 50.3199 39.4917 50.0182 40.4817 49.2566L47.6317 56.4066C48.17 56.9566 48.9984 57.1482 49.7367 56.8832C50.4734 56.6266 51.0034 55.9599 51.08 55.1782L51.4884 51.4916L55.19 51.0816C56.3017 50.9582 57.105 49.9566 56.9834 48.8449C56.9334 48.3899 56.7284 47.9599 56.4067 47.6366L56.4117 47.6349ZM37.675 45.1616C37.2584 45.3916 36.7017 45.3916 36.2867 45.1616C36.03 45.0199 35.8284 44.8382 35.69 44.6232C34.7034 43.0949 33.02 42.1999 31.2767 42.1999C30.615 42.1532 30.0084 42.4916 29.3384 42.2866C28.8834 42.1566 28.49 41.7649 28.36 41.3099C28.2784 41.0249 28.2667 40.7516 28.325 40.4966C28.805 38.3849 27.8784 36.1632 26.02 34.9666C25.6017 34.6882 25.3 34.2082 25.3134 33.6532C25.3 33.1266 25.6117 32.6299 26.02 32.3649C27.8784 31.1682 28.8034 28.9466 28.3234 26.8332C28.265 26.5799 28.2784 26.3066 28.36 26.0199C28.49 25.5666 28.8834 25.1749 29.34 25.0432C29.6284 24.9616 29.9 24.9482 30.1584 25.0066C32.27 25.4832 34.4917 24.5616 35.6884 22.7099C35.8284 22.4932 36.03 22.3116 36.2834 22.1699C36.6984 21.9382 37.255 21.9382 37.6717 22.1699C37.9284 22.3116 38.13 22.4932 38.2684 22.7082C39.465 24.5616 41.6884 25.4866 43.7984 25.0066C44.055 24.9482 44.33 24.9616 44.62 25.0432C45.075 25.1732 45.4684 25.5649 45.5984 26.0199C45.68 26.3049 45.6917 26.5782 45.635 26.8316C45.1534 28.9432 46.08 31.1666 47.9384 32.3632C48.3567 32.6416 48.6584 33.1216 48.645 33.6766C48.6584 34.2032 48.3467 34.6999 47.9384 34.9649C46.08 36.1616 45.1534 38.3849 45.635 40.4932C45.6934 40.7499 45.68 41.0232 45.5984 41.3099C45.4684 41.7632 45.075 42.1566 44.62 42.2849C44.3334 42.3666 44.0567 42.3799 43.8 42.3216C41.6884 41.8466 39.4667 42.7666 38.27 44.6182C38.13 44.8349 37.9284 45.0166 37.675 45.1582V45.1616ZM39.4867 38.6666H32.835C31.455 38.6666 30.335 37.5466 30.335 36.1666V32.8332C30.335 31.4532 31.455 30.3332 32.835 30.3332H33.4617L36.1684 26.9232C36.4317 26.3932 36.8284 26.1716 37.3434 26.1666C37.95 26.1666 38.4484 26.5632 38.615 27.1766C38.635 27.2482 38.66 27.4116 38.6084 27.7099L37.765 30.3349H41.5017C42.72 30.3349 43.7 31.3366 43.6734 32.5549C43.67 32.7399 43.6417 32.9249 43.59 33.1032L42.6917 36.2499C42.2834 37.6816 40.975 38.6682 39.4867 38.6682V38.6666Z" fill="white"/>
</g>
<defs>
<clipPath id="clip0_67_888">
<rect width="40" height="40" fill="white" transform="translate(17 17)"/>
</clipPath>
</defs>
</svg>
