<svg width="70" height="70" viewBox="0 0 70 70" fill="none" xmlns="http://www.w3.org/2000/svg">
<rect width="70" height="70" rx="35" fill="#5E13F6"/>
<g clip-path="url(#clip0_67_877)">
<path d="M36.6667 14.9934H23.3333C18.7383 14.9934 15 18.7317 15 23.3267V44.7501C15 46.0717 15.725 47.2817 16.89 47.9067C17.42 48.1917 18.0017 48.3317 18.5817 48.3317C19.275 48.3317 19.9667 48.1301 20.5667 47.7317L27.1717 43.3267H36.6667C41.2617 43.3267 45 39.5884 45 34.9934V23.3267C45 18.7317 41.2617 14.9934 36.6667 14.9934ZM55 29.9934V51.4167C55 52.7384 54.275 53.9484 53.11 54.5734C52.58 54.8584 51.9983 54.9984 51.4183 55.0001C50.725 55.0001 50.0333 54.7984 49.435 54.4001L42.8283 49.9934H33.3333C30.9167 49.9934 28.755 48.9417 27.2317 47.2934L28.18 46.6601H36.6667C43.0983 46.6601 48.3333 41.4251 48.3333 34.9934V23.3267C48.3333 22.8134 48.2883 22.3134 48.225 21.8167C52.0767 22.5501 55 25.9317 55 29.9934Z" fill="white"/>
</g>
<defs>
<clipPath id="clip0_67_877">
<rect width="40" height="40" fill="white" transform="translate(15 15)"/>
</clipPath>
</defs>
</svg>
