<svg width="32" height="32" viewBox="0 0 32 32" fill="none" xmlns="http://www.w3.org/2000/svg">
<g clip-path="url(#clip0_1_1409)">
<path d="M17.3559 10.0048C16.298 11.0627 15.7034 12.4966 15.7034 13.9929V15.2355C15.7034 15.5947 15.9948 15.8861 16.354 15.8861H17.5966C19.0916 15.8861 20.5268 15.2915 21.5834 14.2349L30.3207 5.49758C31.4267 4.39159 31.6388 2.58817 30.6486 1.37678C29.5101 -0.0154682 27.4529 -0.0922371 26.2129 1.14778L17.3559 10.0048ZM23.4245 16.0735C21.8696 17.6297 19.7995 18.4872 17.5966 18.4872H15.7034C14.2669 18.4872 13.101 17.3213 13.101 15.8848V13.9916C13.101 11.79 13.9585 9.72118 15.5147 8.16368L22.6295 1.05149C21.7226 0.570058 20.7038 0.27209 19.6069 0.27209H6.5952C3.00788 0.27209 0.0893555 3.19061 0.0893555 6.77794V24.9943C0.0893555 28.5816 3.00788 31.5001 6.5952 31.5001H19.6069C23.1942 31.5001 26.1127 28.5816 26.1127 24.9943V13.3866L23.4245 16.0748V16.0735ZM10.716 21.9574L8.52093 24.1524C7.96013 24.7133 7.22627 24.9956 6.48981 24.9956C5.79628 24.9956 5.10276 24.7445 4.54976 24.2383L3.67928 23.4849C3.13669 23.0139 3.07814 22.1929 3.54786 21.649C4.02019 21.1064 4.84122 21.0479 5.38381 21.5176L6.28032 22.2957C6.41434 22.4167 6.57698 22.4154 6.67978 22.3126L8.87485 20.1175C9.38361 19.6088 10.2059 19.6088 10.7147 20.1175C11.2235 20.6263 11.2248 21.4486 10.716 21.9574ZM10.716 15.4515L8.52093 17.6466C7.96013 18.2074 7.22627 18.4898 6.48981 18.4898C5.79628 18.4898 5.10276 18.2386 4.54976 17.7325L3.67928 16.9791C3.13669 16.5081 3.07814 15.6857 3.54786 15.1432C4.02019 14.598 4.84122 14.5433 5.38381 15.0117L6.28032 15.7898C6.41434 15.9108 6.57698 15.9095 6.67978 15.8067L8.87485 13.6117C9.38361 13.1029 10.2059 13.1029 10.7147 13.6117C11.2235 14.1204 11.2248 14.9428 10.716 15.4515ZM10.716 8.99773L8.52093 11.1928C7.96013 11.7536 7.22627 12.036 6.48981 12.036C5.79628 12.036 5.10276 11.7848 4.54976 11.2787L3.67928 10.5253C3.13669 10.0543 3.07814 9.23194 3.54786 8.68935C4.02019 8.14546 4.84122 8.08951 5.38381 8.55793L6.28032 9.33603C6.41434 9.45834 6.57698 9.45574 6.67978 9.35295L8.87485 7.15788C9.38361 6.64912 10.2059 6.64912 10.7147 7.15788C11.2235 7.66663 11.2248 8.48897 10.716 8.99773ZM20.9081 23.6918H15.7034C14.9838 23.6918 14.4022 23.1102 14.4022 22.3907C14.4022 21.6711 14.9838 21.0895 15.7034 21.0895H20.9081C21.6276 21.0895 22.2092 21.6711 22.2092 22.3907C22.2092 23.1102 21.6276 23.6918 20.9081 23.6918Z" fill="white"/>
</g>
<defs>
<clipPath id="clip0_1_1409">
<rect width="31.2281" height="31.2281" fill="white" transform="translate(0.0893555 0.271851)"/>
</clipPath>
</defs>
</svg>
