<svg width="32" height="32" viewBox="0 0 32 32" fill="none" xmlns="http://www.w3.org/2000/svg">
<g clip-path="url(#clip0_1_1421)">
<path d="M17.9489 10.0048C16.891 11.0627 16.2964 12.4966 16.2964 13.9929V15.2355C16.2964 15.5947 16.5879 15.8861 16.947 15.8861H18.1896C19.6846 15.8861 21.1198 15.2915 22.1764 14.2349L30.9137 5.49758C32.0197 4.39159 32.2318 2.58817 31.2416 1.37678C30.1031 -0.0154682 28.046 -0.0922371 26.8059 1.14778L17.9489 10.0048ZM24.0175 16.0735C22.4626 17.6297 20.3925 18.4872 18.1896 18.4872H16.2964C14.8599 18.4872 13.6941 17.3213 13.6941 15.8848V13.9916C13.6941 11.79 14.5515 9.72118 16.1077 8.16368L23.2225 1.05149C22.3156 0.570058 21.2968 0.27209 20.1999 0.27209H7.18822C3.6009 0.27209 0.682373 3.19061 0.682373 6.77794V24.9943C0.682373 28.5816 3.6009 31.5001 7.18822 31.5001H20.1999C23.7872 31.5001 26.7058 28.5816 26.7058 24.9943V13.3866L24.0175 16.0748V16.0735ZM11.309 21.9574L9.11395 24.1524C8.55314 24.7133 7.81929 24.9956 7.08282 24.9956C6.3893 24.9956 5.69578 24.7445 5.14278 24.2383L4.2723 23.4849C3.72971 23.0139 3.67116 22.1929 4.14088 21.649C4.6132 21.1064 5.43424 21.0479 5.97683 21.5176L6.87334 22.2957C7.00736 22.4167 7.17 22.4154 7.27279 22.3126L9.46787 20.1175C9.97662 19.6088 10.799 19.6088 11.3077 20.1175C11.8165 20.6263 11.8178 21.4486 11.309 21.9574ZM11.309 15.4515L9.11395 17.6466C8.55314 18.2074 7.81929 18.4898 7.08282 18.4898C6.3893 18.4898 5.69578 18.2386 5.14278 17.7325L4.2723 16.9791C3.72971 16.5081 3.67116 15.6857 4.14088 15.1432C4.6132 14.598 5.43424 14.5433 5.97683 15.0117L6.87334 15.7898C7.00736 15.9108 7.17 15.9095 7.27279 15.8067L9.46787 13.6117C9.97662 13.1029 10.799 13.1029 11.3077 13.6117C11.8165 14.1204 11.8178 14.9428 11.309 15.4515ZM11.309 8.99773L9.11395 11.1928C8.55314 11.7536 7.81929 12.036 7.08282 12.036C6.3893 12.036 5.69578 11.7848 5.14278 11.2787L4.2723 10.5253C3.72971 10.0543 3.67116 9.23194 4.14088 8.68935C4.6132 8.14546 5.43424 8.08951 5.97683 8.55793L6.87334 9.33603C7.00736 9.45834 7.17 9.45574 7.27279 9.35295L9.46787 7.15788C9.97662 6.64912 10.799 6.64912 11.3077 7.15788C11.8165 7.66663 11.8178 8.48897 11.309 8.99773ZM21.5011 23.6918H16.2964C15.5769 23.6918 14.9952 23.1102 14.9952 22.3907C14.9952 21.6711 15.5769 21.0895 16.2964 21.0895H21.5011C22.2206 21.0895 22.8022 21.6711 22.8022 22.3907C22.8022 23.1102 22.2206 23.6918 21.5011 23.6918Z" fill="white"/>
</g>
<defs>
<clipPath id="clip0_1_1421">
<rect width="31.2281" height="31.2281" fill="white" transform="translate(0.682373 0.271851)"/>
</clipPath>
</defs>
</svg>
