<svg width="31" height="30" viewBox="0 0 31 30" fill="none" xmlns="http://www.w3.org/2000/svg">
<g clip-path="url(#clip0_1_1470)">
<path d="M30.0244 12.3357L30.0244 14.7677L20.2964 14.7677L20.2964 12.3357L30.0244 12.3357ZM20.2964 20.8477L27.5924 20.8477L27.5924 18.4157L20.2964 18.4157L20.2964 20.8477ZM20.2964 26.9277L25.1604 26.9277L25.1604 24.4957L20.2964 24.4957L20.2964 26.9277ZM22.7284 9.90367L17.8644 9.90367L17.8644 29.3597L6.92034 29.3597C4.90907 29.3597 3.27234 27.723 3.27234 25.7117L3.27234 7.47167L0.840332 7.47167L0.840332 5.03967L6.92034 5.03967L6.92034 2.60766C6.92034 1.26641 8.01109 0.175659 9.35234 0.175659L16.6484 0.175659C17.9896 0.175659 19.0804 1.26641 19.0804 2.60766L19.0804 5.03967L25.1604 5.03967L25.1604 7.47167L22.7284 7.47167L22.7284 9.90367ZM16.6484 2.60766L9.35234 2.60766L9.35234 5.03967L16.6484 5.03967L16.6484 2.60766Z" fill="white"/>
</g>
<defs>
<clipPath id="clip0_1_1470">
<rect width="29.184" height="29.184" fill="white" transform="translate(0.840332 0.175659)"/>
</clipPath>
</defs>
</svg>
