<svg width="30" height="30" viewBox="0 0 30 30" fill="none" xmlns="http://www.w3.org/2000/svg">
<path d="M15.3614 28.1693L2.98008 28.1693C2.65176 28.1693 2.33804 28.0367 2.10821 27.8008C1.8796 27.5661 1.75557 27.2475 1.76408 26.9192C1.94527 20.2142 5.12876 17.224 12.0831 17.224C12.4369 17.224 12.775 17.2374 13.1106 17.2532C12.826 18.3051 12.6765 19.504 12.6765 20.872C12.6765 24.2805 13.552 26.6858 15.3614 28.1693ZM12.0831 14.7933C16.6455 14.7933 18.7711 12.6677 18.7711 8.10525C18.7711 3.54281 16.6455 1.41724 12.0831 1.41724C7.52063 1.41724 5.39506 3.54281 5.39506 8.10525C5.39506 12.6677 7.52063 14.7933 12.0831 14.7933ZM28.0881 24.5663C27.5786 25.4345 26.4599 25.7263 25.5916 25.2156L25.0213 24.8812C24.6286 25.1645 24.158 25.3725 23.6193 25.5135L23.6193 26.3453C23.6193 27.3521 22.8021 28.1693 21.7953 28.1693C20.7884 28.1693 19.9713 27.3521 19.9713 26.3453L19.9713 25.5135C19.4326 25.3725 18.962 25.1657 18.5692 24.8812L17.9989 25.2156C17.1307 25.7251 16.012 25.4345 15.5025 24.5663C14.993 23.698 15.2836 22.5793 16.1518 22.0698L16.9653 21.5919C16.9434 21.3633 16.9301 21.125 16.9301 20.872C16.9301 20.6191 16.9434 20.382 16.9653 20.1522L16.1518 19.6743C15.2836 19.1648 14.9917 18.0461 15.5025 17.1778C16.012 16.3096 17.1307 16.0178 17.9989 16.5285L18.5692 16.8629C18.962 16.5796 19.4326 16.3716 19.9713 16.2306L19.9713 15.3988C19.9713 14.392 20.7884 13.5748 21.7953 13.5748C22.8021 13.5748 23.6193 14.392 23.6193 15.3988L23.6193 16.2306C24.158 16.3716 24.6286 16.5783 25.0213 16.8629L25.5916 16.5285C26.4599 16.019 27.5786 16.3096 28.0881 17.1778C28.5976 18.0461 28.307 19.1648 27.4387 19.6743L26.6252 20.1522C26.6471 20.3808 26.6605 20.6191 26.6605 20.872C26.6605 21.125 26.6471 21.3621 26.6252 21.5919L27.4387 22.0698C28.307 22.5793 28.5988 23.698 28.0881 24.5663ZM23.6205 20.8733C23.6205 19.4238 23.246 19.0493 21.7965 19.0493C20.347 19.0493 19.9725 19.4238 19.9725 20.8733C19.9725 22.3227 20.347 22.6973 21.7965 22.6973C23.246 22.6973 23.6205 22.3227 23.6205 20.8733Z" fill="white"/>
</svg>
